<svg width="187" height="115" viewBox="0 0 187 115" fill="none" xmlns="http://www.w3.org/2000/svg">
<path d="M186.19 0.5H0.699982V114.89H186.19V0.5Z" fill="white"/>
<path d="M175.38 59.79C175.38 59.94 138.47 60.05 92.95 60.05C47.43 60.05 10.5 59.94 10.5 59.79C10.5 59.64 47.4 59.53 92.95 59.53C138.5 59.53 175.38 59.65 175.38 59.79Z" fill="#E0E0E0"/>
<path d="M175.38 45.56C175.38 45.7 138.47 45.82 92.95 45.82C47.43 45.82 10.5 45.7 10.5 45.56C10.5 45.42 47.4 45.3 92.95 45.3C138.5 45.3 175.38 45.41 175.38 45.56Z" fill="#E0E0E0"/>
<path d="M175.38 31.32C175.38 31.47 138.47 31.58 92.95 31.58C47.43 31.58 10.5 31.47 10.5 31.32C10.5 31.17 47.4 31.06 92.95 31.06C138.5 31.06 175.38 31.18 175.38 31.32Z" fill="#E0E0E0"/>
<path d="M175.38 17.09C175.38 17.23 138.47 17.35 92.95 17.35C47.43 17.35 10.5 17.23 10.5 17.09C10.5 16.95 47.4 16.83 92.95 16.83C138.5 16.83 175.38 16.94 175.38 17.09Z" fill="#E0E0E0"/>
<path d="M38.17 53.34H24.45V80.93H38.17V53.34Z" fill="#901A20" fill-opacity="0.58"/>
<path d="M87.41 53.34H73.69V80.93H87.41V53.34Z" fill="#455A64" fill-opacity="0.63"/>
<path d="M162.09 62.74H148.37V80.92H162.09V62.74Z" fill="#455A64" fill-opacity="0.63"/>
<path d="M136.64 40.27H122.92V80.92H136.64V40.27Z" fill="#E0E0E0"/>
<path d="M111.47 24.45H97.75V80.93H111.47V24.45Z" fill="#901A20" fill-opacity="0.49"/>
<path d="M61.81 40.27H48.09V80.92H61.81V40.27Z" fill="#E0E0E0"/>
<path d="M173.42 80.93H172.8H171H164.08L138.61 81.01L54.61 81.09H10.29H9.98999V80.85C9.98999 59 10.07 40.37 10.09 27.19C10.09 20.62 10.14 15.41 10.16 11.82C10.16 10.05 10.16 8.68 10.16 7.73C10.16 7.28 10.16 6.93999 10.16 6.67999C10.1518 6.56013 10.1518 6.43987 10.16 6.32001C10.16 6.32001 10.16 6.44999 10.16 6.67999V7.73C10.16 8.68 10.16 10.05 10.16 11.82C10.16 15.41 10.16 20.62 10.23 27.19C10.23 40.37 10.29 59 10.33 80.85L10.09 80.6H54.59L138.59 80.67L164.06 80.75L170.98 80.8H172.78L173.42 80.93Z" fill="#263238"/>
<path d="M45.13 94.92H39.1V100.95H45.13V94.92Z" fill="#901A20"/>
<path d="M81.97 94.73H75.94V100.76H81.97V94.73Z" fill="#E0E0E0"/>
<path d="M121.82 94.92H115.79V100.95H121.82V94.92Z" fill="#455A64"/>
<path d="M65.09 97.74C62.3618 98.0033 59.6194 98.0901 56.88 98C54.1406 98.0901 51.3982 98.0033 48.67 97.74C51.3986 97.4827 54.1406 97.3959 56.88 97.48C59.6194 97.3959 62.3614 97.4827 65.09 97.74Z" fill="#263238"/>
<path d="M101.65 97.74C98.9218 98.0033 96.1794 98.0901 93.44 98C90.7006 98.0901 87.9582 98.0033 85.23 97.74C87.9586 97.4827 90.7006 97.3959 93.44 97.48C96.1794 97.3959 98.9214 97.4827 101.65 97.74Z" fill="#263238"/>
<path d="M140.57 97.74C135.105 98.0867 129.625 98.0867 124.16 97.74C129.625 97.3933 135.105 97.3933 140.57 97.74Z" fill="#263238"/>
</svg>
